<?xml version="1.0" encoding="utf-8"?>
<!-- Generator: Adobe Illustrator 16.0.0, SVG Export Plug-In . SVG Version: 6.00 Build 0)  -->
<!DOCTYPE svg PUBLIC "-//W3C//DTD SVG 1.1//EN" "http://www.w3.org/Graphics/SVG/1.1/DTD/svg11.dtd">
<svg version="1.1" id="Layer_1" xmlns="http://www.w3.org/2000/svg" xmlns:xlink="http://www.w3.org/1999/xlink" x="0px" y="0px"
	 width="692.571px" height="154.812px" viewBox="0 0 692.571 154.812" enable-background="new 0 0 692.571 154.812"
	 xml:space="preserve">
<path fill-rule="evenodd" clip-rule="evenodd" d="M85.562,144.356c-2.252,1.209-4.509,2.409-6.757,3.627
	c-7.39,4.005-15.012,6.971-23.674,6.727c-9.969-0.282-17.298-4.794-22.259-13.213c-5.093-8.642-5.988-18.204-5.4-27.972
	c0.111-1.846-0.288-2.774-2.015-3.675c-7.418-3.87-14.285-8.483-19.402-15.325c-8.564-11.45-8.021-25.289,1.491-36.122
	c5.529-6.297,12.277-10.896,19.884-14.301c3.279-1.345,6.558-2.691,9.837-4.037c6.804-1.801,13.571-3.761,20.434-5.3
	c1.955-0.439,3.251-1.232,4.536-2.602c4.252-4.534,8.607-8.971,12.896-13.471c0.552-0.58,0.946-1.311,1.413-1.972
	c2.646-2.072,5.292-4.144,7.938-6.215c3.35-1.805,6.676-3.657,10.056-5.404c7.405-3.827,15.271-5.9,23.596-4.814
	c8.844,1.153,15.295,6.102,19.536,13.902c2.866,5.273,4.261,11.008,4.716,16.938c0.272,3.542,0.164,7.117,0.101,10.675
	c-0.027,1.536,0.507,2.312,1.911,3.052c7.402,3.898,14.268,8.498,19.431,15.293c8.761,11.528,8.164,25.688-1.556,36.509
	c-4.967,5.529-10.948,9.655-17.465,13.095c-0.805,0.425-1.578,0.913-2.366,1.373c-3.148,1.324-6.296,2.648-9.444,3.972
	c-1.052,0.203-2.116,0.355-3.153,0.618c-5.699,1.444-11.347,3.139-17.107,4.267c-2.33,0.456-3.875,1.405-5.343,3.092
	c-2.774,3.188-5.69,6.253-8.566,9.351c-1.785,1.923-3.604,3.812-5.409,5.718C90.801,140.213,88.182,142.285,85.562,144.356z
	 M93.34,17.177c-3.206,1.221-6.067,2.897-7.879,5.96c-1.233,0.768-2.604,1.381-3.67,2.335c-2.335,2.092-4.515,4.357-6.758,6.552
	c0.14,0.213,0.28,0.427,0.42,0.641c6.522,0,13.045,0,19.567,0c3.028,3.544,6.056,7.088,9.084,10.633
	c-0.655,0.032-1.322,0.16-1.965,0.083c-11.515-1.383-23.032-1.454-34.524,0.129c-1.301,0.179-2.859,1.003-3.632,2.03
	c-2.591,3.444-5.134,6.974-7.229,10.731C53.001,63,49.588,69.917,46.033,76.756c-1.507-4.3-3.015-8.601-4.522-12.901
	c3.202-5.71,6.403-11.419,9.605-17.129c-0.169-0.266-0.338-0.531-0.507-0.796c-4.209,1.562-8.419,3.123-12.629,4.685
	c-3.447,0.377-6.655,1.287-9.024,4.061c-7.222,3.13-13.044,7.903-17.014,14.754c-2.994,5.168-2.952,10.441-0.17,15.716
	c2.432,4.609,6.094,8.088,10.259,11.066c2.065,1.478,4.285,2.737,6.753,4.298c0.355-1.406,0.537-2.284,0.799-3.137
	c1.968-6.415,3.952-12.824,5.932-19.236c1.85,4.283,3.7,8.567,5.55,12.851c-1.101,4.444-2.2,8.888-3.422,13.823
	c4.859,1.348,9.205,2.553,13.55,3.757c2.787,3.864,5.575,7.729,8.363,11.594c-5.514-1.169-11.034-2.302-16.536-3.524
	c-1.907-0.424-3.764-1.066-5.661-1.613c-1.066,4.868,0.035,13.033,2.389,18.63c3.442,8.186,9.092,11.954,17.902,11.47
	c6.458-0.354,12.203-3.062,17.66-6.358c0.47-0.284,0.648-1.05,0.961-1.593c2.192,0.33,6.993-2.826,8.295-5.455
	c1.231-0.781,2.596-1.412,3.666-2.374c2.337-2.101,4.524-4.368,6.772-6.567c-0.137-0.213-0.273-0.425-0.41-0.637
	c-6.527,0-13.054,0-19.582,0c-2.983-3.52-5.967-7.038-8.951-10.558c0.994,0.029,1.995-0.007,2.981,0.098
	c10.862,1.144,21.714,1.077,32.579-0.036c2.181-0.223,3.732-1.041,4.904-2.87c2.465-3.849,5.249-7.515,7.467-11.497
	c3.514-6.309,6.672-12.815,9.98-19.238c1.535,4.305,3.069,8.608,4.604,12.912c-3.233,5.696-6.466,11.393-9.699,17.088
	c0.168,0.268,0.336,0.536,0.504,0.805c4.205-1.539,8.41-3.077,12.614-4.616c3.451-0.349,6.569-1.446,9.042-4.003
	c7.052-3.205,12.911-7.868,16.886-14.564c3.639-6.131,3.278-12.504-1.015-17.991c-3.068-3.922-7.168-7.06-10.947-10.388
	c-1.31-1.154-3.04-1.831-4.837-2.877c-0.409,1.719-0.645,3.02-1.03,4.276c-1.842,6.01-3.726,12.008-5.594,18.01
	c-1.987-4.32-3.975-8.64-5.963-12.959c1.299-4.376,2.598-8.751,4.044-13.625c-5.074-1.429-9.429-2.656-13.783-3.883
	c-2.766-3.855-5.531-7.71-8.297-11.566c5.436,1.149,10.879,2.262,16.303,3.468c1.977,0.44,3.904,1.103,6.107,1.737
	c0.479-5.975-0.006-11.424-1.902-16.624c-0.981-2.691-2.376-5.341-4.09-7.631c-3.272-4.37-7.973-6.179-13.353-5.953
	C106.04,9.967,99.347,12.687,93.34,17.177z"/>
<path fill-rule="evenodd" clip-rule="evenodd" d="M269.155,96.504c-4.672,0-8.799,0-13.157,0c-0.068-1.112-0.18-2.086-0.181-3.06
	c-0.013-9.747,0.008-19.495-0.015-29.242c-0.018-7.772-4.833-10.91-11.885-7.544c-2.282,1.089-4.326,2.797-6.223,4.507
	c-0.703,0.633-0.927,2.079-0.935,3.158c-0.068,9.664-0.036,19.328-0.046,28.992c-0.001,0.978-0.092,1.955-0.152,3.132
	c-4.318,0-8.433,0-12.853,0c-0.064-0.923-0.188-1.882-0.19-2.841c-0.015-9.414-0.009-18.829-0.009-28.243
	c0-0.583,0.011-1.167-0.003-1.749c-0.158-6.64-4.524-9.891-10.714-7.516c-2.711,1.041-5.105,3.054-7.416,4.909
	c-0.715,0.574-0.938,2.083-0.946,3.167c-0.07,9.747-0.036,19.495-0.049,29.242c-0.001,0.976-0.11,1.95-0.179,3.074
	c-4.422,0-8.628,0-13.059,0c0-17.205,0-34.31,0-51.633c3.357,0,6.708,0,10.222,0c0.472,1.81,0.926,3.553,1.501,5.761
	c1.412-0.799,2.585-1.465,3.759-2.129c6.342-3.584,13.084-5.243,20.129-2.845c2.852,0.971,5.255,3.26,8.196,5.164
	c2.042-1.086,4.552-2.841,7.337-3.797c3.336-1.146,6.888-2.145,10.379-2.268c9.642-0.339,15.705,5.109,16.153,14.819
	c0.472,10.226,0.255,20.483,0.333,30.728C269.168,92.271,269.155,94.249,269.155,96.504z"/>
<path fill-rule="evenodd" clip-rule="evenodd" d="M653.754,62.487c-3.895,11.282-7.789,22.564-11.729,33.975
	c-4.252,0-8.362,0-12.758,0c-4.32-17.127-8.625-34.19-13.011-51.573c4.628,0,8.885,0,13.404,0
	c2.427,11.005,4.858,22.024,7.29,33.045c0.191,0.024,0.383,0.05,0.575,0.074c3.632-11.081,7.263-22.162,10.895-33.248
	c3.962,0,7.604,0,11.503,0c3.868,10.904,7.734,21.801,11.602,32.698c0.289-0.031,0.577-0.062,0.866-0.093
	c2.11-10.788,4.221-21.576,6.361-32.521c4.534,0,8.897,0,13.818,0c-4.647,17.289-9.249,34.406-13.881,51.635
	c-4.255,0-8.289,0-12.573,0c-3.865-11.352-7.718-22.665-11.57-33.979C654.283,62.496,654.018,62.491,653.754,62.487z"/>
<path fill-rule="evenodd" clip-rule="evenodd" d="M560.626,70.511c0.581-3.51,0.939-7.076,1.789-10.52
	c2.04-8.265,7.616-13.09,15.722-14.974c6.496-1.51,13.041-1.408,19.506,0.411c6.824,1.919,11.566,6.185,13.808,12.897
	c2.771,8.299,2.747,16.682-0.165,24.971c-2.303,6.557-7.086,10.576-13.619,12.457c-6.521,1.876-13.207,1.925-19.757,0.312
	c-10.233-2.521-16.02-10.057-16.745-21.251c-0.091-1.408-0.012-2.826-0.012-4.24C560.977,70.553,560.802,70.532,560.626,70.511z
	 M573.889,70.426c0.68,3.144,0.996,6.426,2.123,9.4c1.804,4.759,5.844,6.585,10.731,6.665c5.019,0.083,9.353-1.412,11.474-6.338
	c2.646-6.146,2.704-12.513,0.234-18.733c-1.788-4.505-5.531-6.483-10.235-6.702c-4.532-0.21-8.628,0.727-11.344,4.83
	C574.703,62.826,574.345,66.53,573.889,70.426z"/>
<path fill-rule="evenodd" clip-rule="evenodd" d="M456.454,75.705c-0.264,3.491,0.959,6.208,3.689,7.344
	c3.382,1.406,7.104,2.527,10.728,2.694c5.119,0.237,10.284-0.514,15.429-0.839c0.652-0.042,1.305-0.062,2.201-0.104
	c0,3.396,0,6.667,0,10.428c-1.82,0.284-3.745,0.83-5.674,0.842c-6.805,0.045-13.702,0.586-20.396-0.313
	c-11.147-1.497-17.844-8.795-19.065-19.974c-0.465-4.255-0.394-8.702,0.289-12.923c1.707-10.561,8.216-16.721,18.916-17.832
	c4.493-0.466,9.179-0.257,13.644,0.468c7.081,1.151,11.473,5.733,13.338,12.628c1.545,5.715,1.537,11.479,0.221,17.581
	C478.69,75.705,467.656,75.705,456.454,75.705z M477.512,65.883c0.045-3.869-0.382-7.308-3.771-9.204
	c-4.268-2.389-8.81-2.461-13.009,0.185c-3.163,1.993-4.245,5.245-4.421,9.02C463.478,65.883,470.32,65.883,477.512,65.883z"/>
<path fill-rule="evenodd" clip-rule="evenodd" d="M302.824,97.483c-3.666-0.663-7.431-0.998-10.978-2.059
	c-6.986-2.089-11.454-6.943-13.423-13.935c-2.054-7.292-2.08-14.684,0.012-21.955c2.059-7.154,6.748-11.929,13.984-14.024
	c6.883-1.993,13.812-2.009,20.722-0.21c7.553,1.966,12.474,6.761,14.684,14.243c2.129,7.208,2.19,14.53,0.121,21.698
	c-2.908,10.072-10.641,15.415-22.038,15.76c-0.999,0.029-2,0.004-3,0.004C302.881,97.164,302.853,97.323,302.824,97.483z
	 M316.271,70.629c-0.394-2.485-0.616-4.979-1.205-7.38c-1.311-5.343-5.359-8.307-11.419-8.604
	c-5.866-0.289-10.431,2.492-12.155,7.614c-1.778,5.281-1.763,10.662-0.154,15.971c1.701,5.613,5.693,8.291,11.904,8.26
	c6.146-0.031,10.157-2.815,11.749-8.463C315.661,75.65,315.853,73.14,316.271,70.629z"/>
<path fill-rule="evenodd" clip-rule="evenodd" d="M385.57,96.564c-3.591,0-6.801,0-10.089,0c-0.608-2.002-1.178-3.88-1.792-5.902
	c-2.853,1.394-5.386,2.793-8.043,3.895c-5.453,2.262-11.104,2.832-16.874,1.369c-6.145-1.558-9.596-5.738-10.934-11.732
	c-0.485-2.175-0.669-4.454-0.685-6.688c-0.071-9.911-0.031-19.824-0.031-29.736c0-0.897,0-1.795,0-2.906c4.458,0,8.653,0,13.145,0
	c0.052,0.879,0.149,1.759,0.15,2.639c0.011,9.663-0.001,19.325,0.01,28.987c0.008,7.342,3.996,10.831,11.078,8.877
	c3.558-0.981,6.788-3.324,9.971-5.356c0.765-0.488,1.049-2.187,1.059-3.331c0.081-9.662,0.047-19.324,0.047-28.987
	c0-0.893,0-1.785,0-2.862c4.49,0,8.671,0,12.987,0C385.57,62.097,385.57,79.198,385.57,96.564z"/>
<path fill-rule="evenodd" clip-rule="evenodd" d="M435.871,57.919c-3.281-0.831-6.045-1.88-8.887-2.174
	c-4.765-0.492-9.579-0.571-14.375-0.665c-1.104-0.022-2.298,0.448-3.313,0.963c-1.86,0.942-2.902,2.512-2.583,4.686
	c0.315,2.154,1.657,3.551,3.774,3.747c2.893,0.269,5.825,0.101,8.724,0.331c3.298,0.262,6.662,0.422,9.845,1.228
	c4.652,1.179,7.446,4.519,8.639,9.146c2.917,11.307-2.453,19.584-13.939,21.383c-8.354,1.309-16.596,0.518-24.729-1.648
	c-0.709-0.188-1.369-0.561-2.113-0.872c0-3.536,0-6.995,0-10.776c2.167,0.588,4.105,1.35,6.108,1.608
	c4.938,0.639,9.9,1.145,14.867,1.483c1.43,0.098,2.984-0.371,4.351-0.91c1.975-0.779,2.906-2.455,2.787-4.579
	c-0.12-2.125-1.163-3.663-3.321-4.133c-1.204-0.262-2.462-0.299-3.7-0.37c-4.722-0.275-9.499-0.169-14.151-0.885
	c-4.24-0.652-7.017-3.65-8.427-7.72c-1.401-4.046-1.541-8.255-0.431-12.317c1.846-6.753,7.216-9.426,13.529-10.604
	c8.511-1.589,16.904-0.794,25.214,1.472c1.559,0.425,2.205,1.179,2.155,2.797C435.808,51.923,435.871,54.74,435.871,57.919z"/>
<path fill-rule="evenodd" clip-rule="evenodd" d="M533.203,25.434c0,3.305,0,6.526,0,10.144c-1.047-0.229-1.879-0.487-2.73-0.584
	c-3.375-0.385-6.77-1.094-10.135-0.986c-5.586,0.178-9.072,4.782-8.146,10.623c4.85,0,9.782,0,14.877,0c0,3.615,0,6.813,0,10.37
	c-5.016,0-9.953,0-15.211,0c0,7.148,0,13.947,0,20.745c0,6.813,0,13.626,0,20.79c-4.506,0-8.754,0-13.269,0
	c-0.068-0.882-0.196-1.764-0.197-2.646c-0.012-16.906-0.027-33.812,0.016-50.719c0.005-2.07,0.138-4.183,0.562-6.203
	c1.432-6.839,5.92-10.842,12.486-12.521c6.388-1.633,12.854-1.622,19.292-0.108c0.564,0.133,1.12,0.317,1.663,0.521
	C532.631,24.943,532.809,25.142,533.203,25.434z"/>
<path fill-rule="evenodd" clip-rule="evenodd" d="M540.188,26.046c4.229,0,8.416,0,12.756,0c0,23.553,0,46.89,0,70.611
	c-2.237,0-4.289,0-6.34,0c-2.066,0-4.133,0-6.416,0C540.188,73.017,540.188,49.599,540.188,26.046z"/>
<path fill-rule="evenodd" clip-rule="evenodd" d="M84.483,10.506c-2.646,2.071-5.292,4.143-7.938,6.214
	c-4.45-2.021-8.762-4.461-13.377-5.974c-8.943-2.931-16.801-0.58-21.238,6.34c-4.468,6.967-5.643,14.804-4.663,22.979
	c-3.279,1.346-6.558,2.692-9.837,4.037c0.055-4.151-0.07-8.314,0.201-12.451c0.525-8.032,2.603-15.604,7.791-21.985
	c5-6.149,11.467-9.33,19.476-9.55C66.122-0.191,75.546,4.413,84.483,10.506z"/>
<path fill-rule="evenodd" clip-rule="evenodd" d="M85.562,144.356c2.619-2.071,5.238-4.144,7.858-6.215
	c4.356,1.977,8.572,4.387,13.095,5.846c11.526,3.719,20.151-0.646,24.355-11.955c2.03-5.459,2.421-11.164,2.128-16.936
	c3.148-1.323,6.296-2.647,9.444-3.972c0.673,8.119,0.236,16.137-2.422,23.908c-3.379,9.882-9.636,16.903-20.17,19.147
	c-5.254,1.12-10.558,0.686-15.789-0.81C97.347,151.451,91.264,148.317,85.562,144.356z"/>
<path fill-rule="evenodd" clip-rule="evenodd" d="M110.397,82.315c0.128-0.306,0.256-0.611,0.384-0.918
	C97.489,70.238,84.197,59.079,70.276,47.392c-0.475,1.876-0.964,2.916-0.968,3.958c-0.049,15.577-0.044,31.155-0.007,46.731
	c0.002,0.998,0.377,1.995,0.579,2.993c0.251,0.087,0.503,0.174,0.755,0.261c4.354-4.456,8.708-8.912,13.391-13.706
	c0.963,1.361,1.688,2.14,2.131,3.055c2.07,4.269,4.062,8.575,6.081,12.868c1.255,2.668,2.815,3.566,4.746,2.732
	c2.103-0.91,2.575-2.829,1.335-5.475c-2.05-4.369-4.116-8.731-6.156-13.105c-1.243-2.666-0.675-3.666,2.276-3.881
	c4.316-0.312,8.641-0.527,12.956-0.853C108.407,82.895,109.397,82.542,110.397,82.315z"/>
<path fill-rule="evenodd" clip-rule="evenodd" d="M46.033,76.756c2,4.528,3.653,9.255,6.082,13.54
	c3.788,6.686,8.089,13.082,12.216,19.572c0.424,0.668,1.147,1.146,1.732,1.712c2.983,3.52,5.967,7.038,8.951,10.558
	c0.513,0.733,0.922,1.575,1.557,2.18c2.628,2.506,5.325,4.938,7.996,7.398c-1.302,2.629-6.103,5.785-8.295,5.455
	c-2.87-2.766-5.799-5.47-8.591-8.311c-2.78-2.829-5.423-5.795-8.125-8.7c-2.788-3.864-5.576-7.729-8.362-11.593
	c-0.304-0.738-0.53-1.521-0.926-2.207c-2.079-3.603-4.186-7.188-6.312-10.762c-0.927-1.559-1.925-3.076-2.89-4.612
	c-1.85-4.283-3.7-8.567-5.55-12.851c-0.109-0.565-0.176-1.143-0.333-1.695c-2.068-7.258-4.148-14.512-6.226-21.766
	c2.369-2.774,5.577-3.684,9.024-4.061c0.227,1.213,0.365,2.45,0.696,3.633c0.901,3.215,1.884,6.406,2.834,9.607
	C43.019,68.155,44.526,72.456,46.033,76.756z"/>
<path fill-rule="evenodd" clip-rule="evenodd" d="M123.975,78.036c-2.275-5.048-4.209-10.287-6.91-15.096
	c-3.48-6.199-7.562-12.062-11.42-18.047c-0.393-0.609-1.021-1.067-1.542-1.596c-3.028-3.544-6.056-7.088-9.084-10.633
	c-3.187-3.176-6.372-6.353-9.559-9.528c1.812-3.063,4.674-4.739,7.88-5.96c5.153,5.363,10.3,10.73,15.466,16.08
	c0.505,0.523,1.128,0.934,1.697,1.397c2.766,3.855,5.531,7.711,8.296,11.565c0.099,0.478,0.083,1.022,0.315,1.422
	c3.121,5.374,6.277,10.728,9.425,16.086c1.988,4.319,3.976,8.639,5.963,12.958c0.156,0.729,0.273,1.469,0.476,2.185
	c2.012,7.119,4.039,14.235,6.061,21.352c-2.473,2.557-5.591,3.654-9.042,4.003c-1.14-4.426-2.28-8.852-3.419-13.276
	C127.044,86.645,125.51,82.341,123.975,78.036z"/>
<path fill-rule="evenodd" clip-rule="evenodd" d="M110.397,82.315c-1,0.227-1.991,0.579-3.002,0.655
	c-4.315,0.325-8.64,0.54-12.956,0.853c-2.951,0.215-3.52,1.215-2.276,3.881c2.04,4.374,4.106,8.736,6.156,13.105
	c1.24,2.646,0.768,4.564-1.335,5.475c-1.93,0.834-3.49-0.064-4.746-2.732c-2.019-4.293-4.011-8.6-6.081-12.868
	c-0.443-0.915-1.168-1.693-2.131-3.055c-4.683,4.794-9.037,9.25-13.391,13.706c-0.252-0.087-0.503-0.174-0.755-0.261
	c-0.202-0.998-0.577-1.995-0.579-2.993c-0.038-15.576-0.042-31.154,0.007-46.731c0.003-1.042,0.493-2.082,0.968-3.958
	c13.921,11.688,27.213,22.847,40.505,34.006C110.653,81.704,110.525,82.01,110.397,82.315z"/>
</svg>
